<?xml version="1.0" encoding="utf-8"?>
<!-- Generator: Adobe Illustrator 24.3.0, SVG Export Plug-In . SVG Version: 6.00 Build 0)  -->
<svg version="1.1" xmlns="http://www.w3.org/2000/svg" xmlns:xlink="http://www.w3.org/1999/xlink" x="0px" y="0px"
	 viewBox="0 0 841.89 566.93" style="enable-background:new 0 0 841.89 566.93;" xml:space="preserve">
<style type="text/css">
	.st0{fill:none;}
	.st1{fill:url(#SVGID_1_);}
	.st2{fill:url(#SVGID_2_);}
	.st3{fill:url(#SVGID_3_);}
	.st4{fill:url(#SVGID_4_);}
	.st5{fill:url(#SVGID_5_);}
</style>
<g id="graphics">
</g>
<g id="BG">
	<g>
		<path class="st0" d="M309.51,348.97c1.75,2.82,7,3.2,14.77,1.56c-3.44-4.75-6.45-9.9-9.03-15.98
			C309.9,340.98,307.7,346.05,309.51,348.97z"/>
		<path class="st0" d="M440.53,239.17c2.73,2.16,5.34,4.51,7.8,7.05c24.13-9.59,41.2-12.69,44.79-6.89
			c2.55,4.13-2.37,11.89-12.11,22.45c-9.13,9.9-23.48,21.56-40.39,33.45c37.26-9.09,0.78,11.61,0.78,11.61s-8.39,2.02-20.58,1.7
			c-10.87,6.99-22.27,13.87-33.68,20.32c-8.41,13.21-17.59,20.58-17.59,20.58s-34.99,14.63-12.64-4.49
			c-36.6,18.2-67.75,28.62-73.22,19.78c-3.71-5.99,7.77-20.21,28.81-37.67c-1.16-3.72-2.05-7.5-2.65-11.29
			c-32.59,25.33-51.23,47.97-43.55,60.38c7.66,12.37,38.75,8.91,77.94-6.2c-2.57-1.76-5.06-3.65-7.44-5.72
			c38.17-14.74,98.74-49.23,132.86-77.89c0.52,2.5,0.91,5.02,1.19,7.54c30.26-26.17,46.82-50.28,39.36-62.33
			C503.01,219.94,475.84,224.57,440.53,239.17z"/>
		<path class="st0" d="M467.02,254.64c-1.62-2.61-6.27-3.21-13.14-2.08c3.6,4.58,6.53,9.26,9,14.24
			C467.04,261.47,468.63,257.24,467.02,254.64z"/>
		<linearGradient id="SVGID_1_" gradientUnits="userSpaceOnUse" x1="424.1758" y1="191.0252" x2="455.3367" y2="191.0252">
			<stop  offset="0" style="stop-color:#FFB11F"/>
			<stop  offset="1" style="stop-color:#FBD240"/>
		</linearGradient>
		<path class="st1" d="M444.48,205.87c8.2-2.61,12.73-11.37,10.11-19.57c-2.61-8.2-11.37-12.73-19.57-10.12
			c-8.2,2.61-12.73,11.37-10.12,19.57C427.52,203.95,436.29,208.48,444.48,205.87z"/>
		<linearGradient id="SVGID_2_" gradientUnits="userSpaceOnUse" x1="468.3001" y1="190.4272" x2="482.5705" y2="190.4272">
			<stop  offset="0" style="stop-color:#FFB11F"/>
			<stop  offset="1" style="stop-color:#FBD240"/>
		</linearGradient>
		<path class="st2" d="M477.6,197.22c3.75-1.2,5.83-5.21,4.63-8.96c-1.2-3.75-5.21-5.83-8.96-4.63c-3.75,1.2-5.83,5.21-4.63,8.96
			C469.83,196.35,473.85,198.42,477.6,197.22z"/>
		<linearGradient id="SVGID_3_" gradientUnits="userSpaceOnUse" x1="371.5269" y1="354.7989" x2="468.1534" y2="354.7989">
			<stop  offset="0" style="stop-color:#FFB11F"/>
			<stop  offset="1" style="stop-color:#FBD240"/>
		</linearGradient>
		<path class="st3" d="M468.15,325.43c-29.46,21.58-62.33,41.07-96.63,56.57C413.75,391.91,456.18,366.95,468.15,325.43z"/>
		<linearGradient id="SVGID_4_" gradientUnits="userSpaceOnUse" x1="225.3223" y1="316.9907" x2="551.8522" y2="316.9907">
			<stop  offset="0" style="stop-color:#FFB11F"/>
			<stop  offset="1" style="stop-color:#FBD240"/>
		</linearGradient>
		<path class="st4" d="M387.15,328.86c11.41-6.46,22.81-13.33,33.68-20.32c-6.75-0.18-14.67-1.07-22.98-3.42
			C395.28,314.34,391.31,322.32,387.15,328.86z"/>
		<linearGradient id="SVGID_5_" gradientUnits="userSpaceOnUse" x1="225.3223" y1="304.7952" x2="551.8522" y2="304.7952">
			<stop  offset="0" style="stop-color:#FFB11F"/>
			<stop  offset="1" style="stop-color:#FBD240"/>
		</linearGradient>
		<path class="st5" d="M549.86,208.52c-10.42-16.83-58.59-4.38-118.4,24.44c-24.99-14.75-57.1-15.61-83.62,0.54
			c-25.85,15.74-39.8,43.61-38.98,71.85c-56.92,40.14-92.45,77.33-81.59,94.87c14.1,22.78,99.19-2.13,186.83-54.61
			C501.73,293.13,563.96,231.29,549.86,208.52z M324.28,350.53c-7.77,1.64-13.02,1.26-14.77-1.56c-1.81-2.92,0.4-7.99,5.74-14.41
			C317.83,340.63,320.84,345.78,324.28,350.53z M470.85,293.9c-0.28-2.52-0.67-5.04-1.19-7.54
			c-34.12,28.66-94.69,63.16-132.86,77.89c2.38,2.06,4.87,3.96,7.44,5.72c-39.19,15.11-70.28,18.57-77.94,6.2
			c-7.68-12.41,10.96-35.05,43.55-60.38c0.61,3.79,1.49,7.57,2.65,11.29c-21.03,17.45-32.52,31.67-28.81,37.67
			c5.47,8.84,36.63-1.59,73.22-19.78c1.28-1.09,2.74-2.29,4.41-3.62c11.53-9.13,19.85-25.4,25.79-40.06
			c-5.99-2.62-12-6.11-17.77-10.73c-2.19-1.75-3.92-3.2-5.25-4.38c-5.58,4.89-15.89,4.61-24.75-1.14
			c-5.2-3.38-8.88-7.99-10.59-12.65c-0.22-0.61,0.45-1.15,1-0.8l13.4,8.7c0.69,0.45,1.6,0.25,2.05-0.44l0.56-0.87
			c0.45-0.69,0.25-1.6-0.44-2.05l-15.36-9.97c-0.57-0.37-0.87-1.05-0.75-1.73c0.21-1.2,1.58-1.79,2.6-1.13l15.25,9.9
			c0.75,0.48,1.75,0.27,2.23-0.47l0.39-0.59c0.5-0.78,0.28-1.82-0.49-2.32l-15.44-10.02c-0.93-0.61-0.98-1.96-0.09-2.63
			c0.54-0.41,1.28-0.43,1.85-0.06l15.16,9.84c0.93,0.6,2.16,0.34,2.76-0.59c0.6-0.93,0.34-2.16-0.59-2.76l-13.42-8.71
			c-0.58-0.37-0.37-1.27,0.32-1.34c5.12-0.55,11.15,0.91,16.63,4.46c9.72,6.31,14.12,16.9,10.25,24.14
			c5.5,1.72,14.32,4.96,24.48,7.88c2.18-6.05,3.92-11.32,5.28-15c-7.7-2.19-12.69-12.21-11.33-23.49
			c1.46-12.14,9.69-21.13,18.39-20.08c8.7,1.04,14.57,11.73,13.11,23.86c-1.32,11-8.21,19.42-15.97,20.12
			c0.1,1.68,0.17,3.75,0.21,6.25c0.06,3.72-0.15,7.3-0.56,10.76c13.35,3.2,27.87,5.08,39.82,2.13c0.2-0.05,0.39-0.1,0.59-0.14
			c16.9-11.89,31.26-23.55,40.39-33.45c9.73-10.56,14.66-18.32,12.11-22.45c-3.59-5.8-20.67-2.7-44.79,6.89
			c-2.46-2.54-5.07-4.89-7.8-7.05c35.32-14.6,62.49-19.23,69.69-7.6C517.67,243.62,501.11,267.73,470.85,293.9z M453.88,252.57
			c6.88-1.14,11.53-0.54,13.14,2.08c1.61,2.6,0.02,6.82-4.14,12.16C460.41,261.83,457.48,257.15,453.88,252.57z"/>
	</g>
</g>
</svg>
